<svg width="226" height="226" viewBox="0 0 226 226" fill="none" xmlns="http://www.w3.org/2000/svg">
<path d="M110.342 39.8124C110.673 40.1913 111.082 40.4949 111.54 40.7029C111.999 40.9109 112.496 41.0185 113 41.0185C113.503 41.0185 114.001 40.9109 114.459 40.7029C114.918 40.4949 115.326 40.1913 115.658 39.8124L125.215 28.8876C125.831 28.1827 126.143 27.2617 126.08 26.3272C126.018 25.3927 125.587 24.5213 124.882 23.9047C124.177 23.288 123.256 22.9767 122.321 23.0391C121.387 23.1015 120.515 23.5326 119.899 24.2375L116.531 28.0871V11.6335C116.531 10.697 116.159 9.79881 115.497 9.13657C114.835 8.47434 113.936 8.10229 113 8.10229C112.063 8.10229 111.165 8.47434 110.503 9.13657C109.841 9.79881 109.469 10.697 109.469 11.6335V28.0871L106.101 24.2375C105.484 23.5326 104.613 23.1015 103.678 23.0391C102.744 22.9767 101.823 23.2881 101.118 23.9048C100.413 24.5214 99.9819 25.3929 99.9195 26.3274C99.8571 27.2619 100.168 28.1829 100.785 28.8878L110.342 39.8124Z" fill="#87CEEB"/>
<path d="M200.069 164.511C189.866 160.243 179.364 156.729 168.647 153.997L175.875 116.912C177.6 108.257 176.823 99.2891 173.635 91.0597C170.447 82.8304 164.98 75.6799 157.874 70.4462C157.264 69.9916 156.524 69.7463 155.763 69.7466C155.002 69.7469 154.262 69.9929 153.652 70.4479L139.995 77.1367C136.558 78.8183 133.594 81.3269 131.366 84.4371C126.475 91.2927 119.952 95.0684 113 95.0684C106.048 95.0684 99.5257 91.2931 94.6347 84.4376C92.4071 81.3272 89.4421 78.8186 86.0059 77.1367L72.3481 70.4479C71.7384 69.9929 70.998 69.7469 70.2372 69.7466C69.4764 69.7463 68.7358 69.9916 68.1257 70.4462C61.0199 75.6799 55.5527 82.8302 52.3647 91.0595C49.1767 99.2888 48.4 108.256 50.1255 116.911L57.3527 153.995C46.8166 156.682 36.4878 160.125 26.4467 164.297L25.939 164.508C25.2945 164.775 24.7438 165.228 24.3563 165.808C23.9689 166.389 23.7622 167.071 23.7622 167.769V213.483C23.7622 214.42 24.1342 215.318 24.7965 215.98C25.4587 216.643 26.3569 217.015 27.2935 217.015H198.707C199.643 217.015 200.541 216.643 201.203 215.98C201.866 215.318 202.238 214.42 202.238 213.483V167.769C202.238 167.073 202.032 166.392 201.646 165.812C201.26 165.232 200.711 164.78 200.069 164.511ZM70.6221 77.4664L82.8995 83.4793C85.283 84.6445 87.3398 86.3832 88.8855 88.5395C95.0479 97.1771 103.837 102.131 113 102.131C122.163 102.131 130.953 97.1767 137.115 88.5391C138.661 86.383 140.718 84.6444 143.101 83.4793L155.378 77.4667C160.871 81.9971 165.033 87.932 167.422 94.6397C169.811 101.348 170.336 108.577 168.943 115.56L154.707 188.605C154.278 190.802 153.128 192.792 151.437 194.259C149.747 195.726 147.615 196.586 145.379 196.701C143.144 196.816 140.935 196.18 139.103 194.894C137.271 193.608 135.922 191.746 135.27 189.605L126.506 160.794C125.625 157.898 123.836 155.363 121.405 153.561C118.973 151.759 116.027 150.786 113 150.786C109.973 150.786 107.027 151.759 104.595 153.561C102.164 155.363 100.375 157.898 99.4944 160.794L90.7297 189.605C90.0782 191.746 88.729 193.608 86.897 194.894C85.0651 196.18 82.8556 196.816 80.6203 196.701C78.385 196.586 76.2525 195.726 74.5623 194.259C72.872 192.792 71.7211 190.802 71.2929 188.605L57.0573 115.56C55.664 108.577 56.1896 101.347 58.5781 94.6395C60.9667 87.9318 65.129 81.9969 70.6221 77.4664Z" fill="#87CEEB"/>
<path d="M67.259 56.2001C67.6096 56.789 68.1241 57.2631 68.7397 57.5644L82.8996 64.4989C85.2828 65.6643 87.3396 67.403 88.8853 69.5591C95.0477 78.1967 103.837 83.1504 113 83.1504C122.163 83.1504 130.953 78.1963 137.115 69.5587C138.661 67.4026 140.718 65.664 143.101 64.4989L157.26 57.5644C157.876 57.2631 158.39 56.789 158.741 56.2001L158.84 56.0333C159.287 55.2835 159.44 54.3949 159.27 53.5389C159.1 52.6829 158.619 51.9201 157.92 51.3977C157.18 50.8446 156.548 50.395 155.93 49.9816C147.827 44.5632 137.686 43.3149 128.076 46.5426C128.004 46.562 127.932 46.5844 127.861 46.6086C126.229 47.1694 124.641 47.8521 123.112 48.6509C119.981 50.2483 116.515 51.0812 113 51.0813C109.485 51.0813 106.02 50.2486 102.888 48.6514C101.644 48.0013 100.362 47.4282 99.0482 46.9353C98.8979 46.8789 98.7459 46.83 98.5921 46.7888C98.4833 46.7381 98.3719 46.6929 98.2585 46.6534C88.5497 43.2821 78.2756 44.4955 70.0695 49.9816C69.4505 50.3959 68.8181 50.8454 68.0795 51.3976C67.3804 51.92 66.8995 52.6828 66.7297 53.5388C66.5598 54.3949 66.7129 55.2835 67.1596 56.0332L67.259 56.2001ZM94.8095 52.9594C95.4329 53.4509 96.2034 53.7183 96.9972 53.7186H97.0112C97.9001 54.07 98.7699 54.468 99.617 54.911C103.758 57.0357 108.346 58.1439 113 58.1439C117.654 58.1439 122.242 57.0357 126.383 54.911C127.538 54.3071 128.736 53.7869 129.965 53.3544C130.029 53.3363 130.093 53.3165 130.156 53.2949C136.155 51.1541 142.746 51.3894 148.578 53.9526L139.995 58.1563C136.559 59.8379 133.594 62.3464 131.366 65.4567C126.475 72.3123 119.952 76.0879 113 76.0879C106.048 76.0879 99.5256 72.3127 94.6346 65.4572C92.407 62.3468 89.442 59.8382 86.0058 58.1563L77.4212 53.9522C82.9068 51.5302 89.084 51.1775 94.8095 52.9594Z" fill="#87CEEB"/>
</svg>
