<svg width="227" height="226" viewBox="0 0 227 226" fill="none" xmlns="http://www.w3.org/2000/svg">
<path d="M36.2987 95.8824C36.4645 96.7753 36.2689 97.6974 35.755 98.446C35.241 99.1946 34.4508 99.7084 33.5582 99.8742C32.6656 100.04 31.7437 99.8444 30.9953 99.3303C30.2469 98.8162 29.7333 98.0258 29.5675 97.133C26.627 75.7235 22.2362 49.9521 42.2298 34.3952C46.6462 31.3663 51.6803 29.357 56.9682 28.5126C62.2561 27.6683 67.6655 28.01 72.8052 29.5131C73.2393 29.63 73.6461 29.8313 74.0024 30.1055C74.3587 30.3797 74.6576 30.7214 74.8818 31.1111C75.1061 31.5008 75.2515 31.9309 75.3096 32.3768C75.3677 32.8227 75.3375 33.2757 75.2206 33.7099C75.1037 34.1441 74.9024 34.5511 74.6283 34.9075C74.3542 35.2639 74.0126 35.5628 73.623 35.7871C73.2334 36.0115 72.8034 36.1569 72.3576 36.215C71.9118 36.2732 71.4589 36.2429 71.0248 36.126C66.8209 34.899 62.3969 34.6216 58.0726 35.3136C53.7484 36.0057 49.6318 37.65 46.0204 40.1278C29.5175 53.0235 33.7182 77.5743 36.2987 95.8824ZM130.315 93.8815C129.439 93.9289 128.614 94.3106 128.01 94.948C127.406 95.5854 127.07 96.43 127.07 97.3081C127.07 98.1861 127.406 99.0307 128.01 99.6681C128.614 100.306 129.439 100.687 130.315 100.735H139.447C140.323 100.687 141.148 100.306 141.752 99.6681C142.356 99.0307 142.692 98.1861 142.692 97.3081C142.692 96.43 142.356 95.5854 141.752 94.948C141.148 94.3106 140.323 93.9289 139.447 93.8815H130.315ZM162.321 93.8815C161.444 93.9289 160.619 94.3106 160.016 94.948C159.412 95.5854 159.076 96.43 159.076 97.3081C159.076 98.1861 159.412 99.0307 160.016 99.6681C160.619 100.306 161.444 100.687 162.321 100.735C166.802 100.274 174.803 102.545 174.873 97.3131C174.943 92.0807 166.792 94.3918 162.301 93.9316L162.321 93.8815ZM150.889 105.347C145.658 105.407 147.888 113.41 147.458 117.902C147.461 118.811 147.823 119.683 148.466 120.326C149.109 120.969 149.98 121.331 150.889 121.334C156.12 121.264 153.89 113.26 154.31 108.768C154.31 107.861 153.949 106.99 153.308 106.349C152.666 105.707 151.796 105.347 150.889 105.347ZM154.31 76.814C154.31 75.9065 153.949 75.0363 153.308 74.3946C152.666 73.753 151.796 73.3925 150.889 73.3925C149.982 73.3925 149.112 73.753 148.47 74.3946C147.829 75.0363 147.468 75.9065 147.468 76.814C147.918 81.286 145.648 89.2995 150.889 89.3595C156.13 89.4196 153.85 81.286 154.31 76.814ZM217.251 40.3879C216.822 40.5222 216.424 40.7399 216.079 41.0286C215.735 41.3173 215.451 41.6712 215.244 42.0701C215.036 42.4689 214.91 42.9048 214.872 43.3526C214.833 43.8005 214.884 44.2515 215.02 44.6798C218.444 55.583 219.758 67.0392 218.891 78.4347C214.6 131.058 195.397 183.911 168.772 216.346C167.801 217.533 166.49 218.394 165.015 218.814C163.54 219.234 161.972 219.192 160.521 218.695C159.071 218.197 157.807 217.267 156.901 216.03C155.994 214.792 155.488 213.307 155.45 211.774C150.739 160.321 129.725 125.736 113.042 125.736C96.3593 125.736 75.3456 160.311 70.6448 211.774C70.6045 213.305 70.0973 214.787 69.1913 216.022C68.2852 217.257 67.0235 218.185 65.5753 218.682C64.127 219.18 62.5614 219.222 61.0882 218.805C59.615 218.387 58.3045 217.529 57.3324 216.346C28.2773 183.021 -17.3008 67.75 22.9063 22.9402C61.8432 -18.6883 122.064 32.7645 132.576 45.14C135.576 48.4815 140.667 43.6793 137.577 40.4979C132.219 34.9171 126.455 29.7407 120.334 25.0111C129.845 18.178 157.25 1.00044 182.655 9.29411C183.081 9.43732 183.532 9.49411 183.981 9.46118C184.43 9.42826 184.868 9.30627 185.269 9.10233C185.67 8.8984 186.027 8.61659 186.318 8.27335C186.609 7.93012 186.829 7.53231 186.965 7.10314C187.246 6.23945 187.174 5.29953 186.763 4.48939C186.353 3.67925 185.638 3.06499 184.775 2.78123C154.37 -7.15317 123.004 14.3163 114.593 20.7192C59.0927 -22.3899 -5.5687 5.89261 0.382348 79.035C4.78313 132.949 24.5766 187.253 52.0115 220.708C53.3303 222.36 55.0042 223.693 56.9088 224.609C58.8135 225.526 60.9 226.001 63.0134 226C66.6889 225.952 70.2137 224.531 72.8967 222.018C75.5796 219.505 77.227 216.079 77.516 212.414C81.9668 163.702 101.52 132.599 113.092 132.599C124.664 132.599 144.228 163.692 148.679 212.404C148.889 215.266 149.946 218.001 151.715 220.26C153.484 222.519 155.885 224.2 158.613 225.09C161.341 225.979 164.271 226.037 167.032 225.254C169.792 224.472 172.257 222.886 174.113 220.698C201.568 187.233 221.361 132.939 225.762 78.995C226.698 66.712 225.286 54.3631 221.602 42.6089C221.467 42.1739 221.246 41.7704 220.953 41.4221C220.66 41.0738 220.3 40.7877 219.894 40.5807C219.489 40.3737 219.046 40.25 218.592 40.2169C218.138 40.1838 217.682 40.2419 217.251 40.3879ZM178.034 24.0106C178.094 29.2529 186.095 27.012 190.586 27.4421C191.038 27.4448 191.486 27.358 191.905 27.1867C192.324 27.0154 192.704 26.7631 193.025 26.4442C193.345 26.1253 193.6 25.7461 193.774 25.3284C193.947 24.9108 194.037 24.4629 194.037 24.0106C193.977 18.7783 185.965 21.0093 181.484 20.5891C181.033 20.5851 180.585 20.6707 180.166 20.8409C179.748 21.0111 179.367 21.2625 179.046 21.5806C178.725 21.8987 178.471 22.2772 178.297 22.6943C178.123 23.1114 178.034 23.5588 178.034 24.0106ZM213.41 27.4421C217.901 26.9819 225.892 29.2529 225.962 24.0106C226.032 18.7683 217.891 21.0093 213.41 20.5891C212.578 20.6949 211.814 21.1017 211.262 21.7326C210.71 22.3635 210.408 23.1748 210.412 24.0133C210.417 24.8519 210.729 25.6596 211.289 26.284C211.848 26.9083 212.617 27.3061 213.45 27.4021L213.41 27.4421ZM202.038 47.9412C207.269 47.8812 205.039 39.8676 205.459 35.3857C205.446 34.4869 205.079 33.6294 204.439 32.9986C203.799 32.3677 202.937 32.0141 202.038 32.0142C196.807 32.0742 199.038 40.0877 198.617 44.5697C198.631 45.4685 198.997 46.3259 199.637 46.9568C200.277 47.5877 201.139 47.9413 202.038 47.9412ZM202.038 15.9771C207.269 15.917 205.039 7.97353 205.459 3.42151C205.459 2.51407 205.098 1.6438 204.457 1.00214C203.815 0.36048 202.945 0 202.038 0C196.807 0.0600266 199.038 8.07357 198.617 12.5556C198.613 13.0074 198.699 13.4555 198.869 13.8741C199.039 14.2927 199.291 14.6735 199.609 14.9944C199.927 15.3153 200.305 15.57 200.722 15.7438C201.139 15.9176 201.586 16.0071 202.038 16.0071V15.9771Z" fill="#87CEEB"/>
</svg>
