<svg width="226" height="226" viewBox="0 0 226 226" fill="none" xmlns="http://www.w3.org/2000/svg">
<path d="M71.0483 35.9015C44.0792 29.05 31.3201 52.7197 34.1421 76.5298C34.1793 77.4384 33.8544 78.3245 33.2388 78.9932C32.6232 79.662 31.7675 80.0586 30.8598 80.0958C30.4104 80.1142 29.9617 80.0438 29.5395 79.8887C29.1172 79.7335 28.7296 79.4967 28.3988 79.1916C27.7307 78.5754 27.3345 77.7188 27.2973 76.8103C23.8248 49.0836 41.1071 20.9563 72.8295 29.2803C73.7067 29.5168 74.4541 30.0923 74.9073 30.8804C75.3605 31.6684 75.4825 32.6044 75.2462 33.4824C75.01 34.3604 74.4351 35.1086 73.6478 35.5622C72.8605 36.0159 71.9254 36.1379 71.0483 35.9015ZM224.287 93.318C223.452 99.6576 220.349 105.479 215.554 109.704C210.759 113.929 204.596 116.272 198.208 116.297H183.708L173.511 136.861H181.587C182.464 136.909 183.289 137.291 183.893 137.929C184.497 138.567 184.834 139.413 184.834 140.292C184.834 141.171 184.497 142.017 183.893 142.655C183.289 143.293 182.464 143.675 181.587 143.723H170.118L159.921 164.277H170.168C171.045 164.325 171.871 164.707 172.475 165.345C173.079 165.983 173.416 166.829 173.416 167.708C173.416 168.587 173.079 169.433 172.475 170.071C171.871 170.709 171.045 171.091 170.168 171.139H156.519L146.322 191.723H158.75C159.658 191.723 160.529 192.084 161.17 192.727C161.812 193.369 162.173 194.241 162.173 195.149C162.173 196.058 161.812 196.929 161.17 197.572C160.529 198.214 159.658 198.575 158.75 198.575H142.919L136.575 211.356C134.416 215.75 131.071 219.45 126.919 222.038C122.767 224.625 117.974 225.997 113.083 225.997C108.192 225.997 103.399 224.625 99.2467 222.038C95.0946 219.45 91.7498 215.75 89.5914 211.356L83.2569 198.575H67.4257C66.518 198.575 65.6475 198.214 65.0057 197.572C64.3639 196.929 64.0033 196.058 64.0033 195.149C64.0033 194.241 64.3639 193.369 65.0057 192.727C65.6475 192.084 66.518 191.723 67.4257 191.723H79.8545L69.6573 171.149H56.0376C55.1607 171.101 54.3352 170.719 53.7312 170.081C53.1271 169.443 52.7905 168.597 52.7905 167.718C52.7905 166.839 53.1271 165.993 53.7312 165.355C54.3352 164.717 55.1607 164.335 56.0376 164.287H66.2549L56.0376 143.723H44.5895C43.7126 143.675 42.8871 143.293 42.2831 142.655C41.679 142.017 41.3424 141.171 41.3424 140.292C41.3424 139.413 41.679 138.567 42.2831 137.929C42.8871 137.291 43.7126 136.909 44.5895 136.861H52.6653L42.468 116.297H28.0178C21.6271 116.279 15.4598 113.941 10.6603 109.717C5.86086 105.493 2.75509 99.6701 1.91933 93.328C1.27888 88.4799 0.768514 83.6017 0.378238 78.8136C-5.53595 5.65061 59.0398 -22.7371 114.679 20.4355C125.417 12.422 173.551 -19.7721 208.225 17.9513C226.278 38.3556 228.24 68.6866 224.287 93.318ZM135.274 198.575H90.9023L95.7358 208.321C97.3531 211.54 99.8321 214.245 102.896 216.136C105.96 218.026 109.489 219.027 113.088 219.027C116.687 219.027 120.216 218.026 123.28 216.136C126.344 214.245 128.823 211.54 130.44 208.321L135.274 198.575ZM148.873 171.149H77.3027L87.5099 191.723H138.666L148.873 171.149ZM162.473 143.723H63.7031L73.9103 164.277H152.266L162.473 143.723ZM176.063 116.297H50.1135L60.3107 136.861H165.865L176.063 116.297ZM120.413 24.7227C126.547 29.4625 132.314 34.6593 137.665 40.2688C140.748 43.4842 135.584 48.2823 132.662 44.9166C132.292 44.546 97.527 7.36349 61.0912 6.59219C15.9493 5.91105 0.898606 53.9919 8.70413 92.4365C9.31483 97.1322 11.6072 101.447 15.1555 104.578C18.7039 107.71 23.2671 109.447 27.9978 109.465H198.208C215.851 109.155 218.533 92.4966 218.993 78.2928C221.995 3.69732 163.994 -8.50319 120.413 24.7227Z" fill="#87CEEB"/>
</svg>
