<svg width="226" height="217" viewBox="0 0 226 217" fill="none" xmlns="http://www.w3.org/2000/svg">
<path d="M222.667 83.5439H211.487C219.474 6.011 162.824 -20.037 113.811 16.5104C56.3799 -25.2967 5.00443 17.8829 14.6229 83.5439H3.42303C2.54589 83.5914 1.7203 83.9736 1.11615 84.6119C0.512013 85.2502 0.175293 86.096 0.175293 86.9752C0.175293 87.8545 0.512013 88.7003 1.11615 89.3386C1.7203 89.9769 2.54589 90.3591 3.42303 90.4066H15.3836C19.7395 133.894 34.802 175.62 59.2224 211.85C60.8759 213.973 63.1495 215.526 65.7265 216.293C68.3035 217.061 71.0555 217.004 73.5991 216.132C76.1426 215.26 78.351 213.615 79.9165 211.427C81.4821 209.239 82.3267 206.617 82.3329 203.926C86.1763 157.971 102.811 141.26 113.1 141.26C123.389 141.26 139.974 157.941 143.827 203.886C143.837 206.577 144.684 209.198 146.251 211.384C147.817 213.571 150.026 215.214 152.569 216.086C155.113 216.958 157.864 217.014 160.441 216.248C163.018 215.482 165.292 213.931 166.948 211.81C191.338 175.585 206.38 133.874 210.727 90.4066H222.667C223.544 90.3591 224.37 89.9769 224.974 89.3386C225.578 88.7003 225.915 87.8545 225.915 86.9752C225.915 86.096 225.578 85.2502 224.974 84.6119C224.37 83.9736 223.544 83.5914 222.667 83.5439ZM161.423 207.713C157.68 212.532 151.294 210.007 150.613 203.335C146.61 155.737 128.874 134.438 113.06 134.438C97.2461 134.438 79.4904 155.747 75.5068 203.375C74.8062 210.047 68.5006 212.532 64.6973 207.743C41.1298 172.72 26.5631 132.416 22.2897 90.4066H63.9466V100.686C63.9492 105.232 65.754 109.591 68.9648 112.807C72.1755 116.023 76.5298 117.832 81.0718 117.837H145.018C149.56 117.829 153.912 116.019 157.122 112.804C160.333 109.589 162.138 105.231 162.144 100.686V90.4066H203.83C199.555 132.406 184.989 172.7 161.423 207.713ZM155.297 83.5439H130.175C129.725 80.1577 131.957 72.183 126.752 72.1129C121.548 72.0427 123.75 80.1276 123.319 83.5439H102.771C102.321 80.1477 104.553 72.183 99.3379 72.1329C94.1233 72.0828 96.3353 80.1477 95.9149 83.564H70.7927V73.255C70.7979 70.5278 71.8826 67.9138 73.8092 65.9854C75.7357 64.057 78.3472 62.9713 81.0718 62.966H145.018C147.743 62.9713 150.354 64.057 152.281 65.9854C154.207 67.9138 155.292 70.5278 155.297 73.255V83.5439ZM95.9149 90.4066C96.3653 93.8129 94.1333 101.757 99.3379 101.828C104.543 101.898 102.341 93.8129 102.771 90.4066H123.319C123.77 93.8129 121.538 101.757 126.752 101.828C131.967 101.898 129.755 93.8129 130.175 90.4066H155.297V100.686C155.295 103.414 154.211 106.029 152.284 107.958C150.357 109.887 147.744 110.972 145.018 110.974H81.0718C78.3464 110.972 75.7334 109.887 73.8063 107.958C71.8791 106.029 70.7953 103.414 70.7927 100.686V90.4066H95.9149ZM205.312 75.8798C205.112 78.4345 204.871 80.9892 204.611 83.5439H162.144V73.255C162.138 68.7094 160.333 64.3514 157.122 61.1363C153.912 57.9212 149.56 56.1113 145.018 56.1033H81.0718C76.5298 56.1087 72.1755 57.9177 68.9648 61.1334C65.754 64.3491 63.9492 68.7086 63.9466 73.255V83.5439H21.509C15.9241 49.9119 30.2868 6.69226 68.6207 6.76239C99.8784 6.8225 129.535 38.8816 129.825 39.2022C132.757 42.5283 137.942 37.8196 134.879 34.5837C130.16 29.5719 125.046 24.9484 119.586 20.7582C161.863 -10.1788 208.735 11.6013 205.312 75.8798Z" fill="#87CEEB"/>
</svg>
