<svg width="226" height="226" viewBox="0 0 226 226" fill="none" xmlns="http://www.w3.org/2000/svg">
<path d="M184.988 82.8568C184.736 82.8568 184.483 82.8617 184.227 82.8705C178.038 63.2169 163.924 47.0464 145.648 38.1216C147.632 34.0854 149.318 28.9805 149.318 24.8498C149.318 12.121 138.963 1.76562 126.234 1.76562C118.519 1.76562 111.392 5.59615 107.121 11.9021C92.4802 6.76367 76.4788 18.2535 76.6814 33.7852C76.6814 34.2165 76.6814 35.1554 77.7659 39.4476C60.7475 48.5971 47.666 64.1544 41.7728 82.8709C29.1707 82.4163 18.5946 92.6362 18.6202 105.248C18.5946 117.859 29.1707 128.081 41.7728 127.626C46.4071 142.344 55.4873 155.107 67.4309 164.339C67.5372 168.39 68.5114 172.228 70.176 175.674C54.9757 186.458 44.1718 202.862 40.3872 221.047C40.0888 222.478 41.0083 223.881 42.4402 224.179C42.6221 224.217 42.8035 224.235 42.9827 224.235C44.2111 224.235 45.3129 223.376 45.5729 222.126C49.06 205.371 58.9669 190.238 72.9167 180.22C77.6521 186.481 84.6554 190.605 92.7292 191.356C93.4835 200.235 101.549 207.541 110.465 207.392H115.535C124.451 207.541 132.518 200.234 133.271 191.356C141.345 190.604 148.349 186.481 153.084 180.22C155.633 182.049 158.072 184.065 160.36 186.233C161.422 187.239 163.098 187.194 164.104 186.132C165.11 185.07 165.065 183.394 164.003 182.388C161.438 179.957 158.693 177.708 155.825 175.674C157.489 172.228 158.463 168.391 158.569 164.34C170.512 155.108 179.593 142.345 184.227 127.626C196.83 128.081 207.405 117.861 207.38 105.249C207.38 92.9023 197.335 82.8577 184.989 82.8577L184.988 82.8568ZM40.3193 122.328C18.5619 120.687 18.5791 89.8006 40.3193 88.1674C37.6995 99.0657 37.6995 111.429 40.3193 122.328ZM99.7656 15.9974C102.326 15.9974 104.803 16.5346 107.128 17.594C108.4 18.1714 109.898 17.6668 110.559 16.4384C113.67 10.6551 119.676 7.0625 126.235 7.0625C136.043 7.0625 144.021 15.0418 144.021 24.8498C144.021 27.7839 142.749 32.1079 140.818 35.9543C122.332 28.457 100.779 28.8384 82.6267 37.0357C82.0171 34.5061 81.9809 33.8612 81.9787 33.7848C81.9787 23.9767 89.9576 15.9974 99.7656 15.9974ZM149.966 175.374C146.224 181.521 139.529 185.611 132.308 186.114C131.777 186.151 131.246 186.175 130.712 186.175C129.249 186.175 128.063 187.361 128.063 188.823V189.566C128.063 196.474 122.443 202.094 115.535 202.094H110.465C103.269 202.117 97.5573 195.981 97.9364 188.823C97.9364 187.361 96.7504 186.175 95.288 186.175C84.9101 186.267 75.3462 178.603 73.2331 168.443C96.9336 183.678 129.066 183.678 152.767 168.443C152.221 170.931 151.261 173.266 149.966 175.374ZM179.75 124.086C171.449 154.351 141.948 176.315 109.624 174.522C72.7229 173.002 43.2974 141.303 43.6603 105.248C43.1522 68.6788 73.9597 36.4919 111.108 35.9172C157.874 34.3803 192.554 80.0729 179.75 124.086ZM185.681 122.328C188.3 111.43 188.3 99.0661 185.681 88.1674C207.437 89.8085 207.421 120.695 185.681 122.328Z" fill="#87CEEB"/>
<path d="M151.966 110.351C129.907 110.366 95.8368 110.341 74.0339 110.351C72.5711 110.351 71.3855 111.537 71.3855 113V116.81C71.3855 139.756 90.0534 158.424 113 158.424C137.495 158.537 156.427 137.209 154.614 112.999C154.614 111.537 153.428 110.351 151.966 110.351V110.351ZM93.7723 115.648H110.352V124.084C110.352 125.545 109.164 126.732 107.703 126.732H96.4207C94.9601 126.732 93.7723 125.545 93.7723 124.084V115.648ZM149.317 116.81C149.317 136.835 133.025 153.127 113 153.127C92.5447 153.164 76.0529 136.068 76.6828 115.648H88.4759V124.084C88.4759 128.465 92.0402 132.029 96.4212 132.029H107.704C112.084 132.029 115.649 128.465 115.649 124.084V115.648H149.318V116.81H149.317Z" fill="#87CEEB"/>
<path d="M81.3389 100.063C82.8012 100.063 83.9873 98.8771 83.9873 97.4148V94.2512C84.3793 84.7843 97.8691 84.7866 98.2602 94.2512V97.4148C98.2602 98.8771 99.4462 100.063 100.909 100.063C102.371 100.063 103.557 98.8771 103.557 97.4148V94.2512C102.874 77.7572 79.3711 77.7616 78.6904 94.2512V97.4148C78.6904 98.8771 79.8765 100.063 81.3389 100.063Z" fill="#87CEEB"/>
<path d="M125.092 100.063C126.554 100.063 127.74 98.8771 127.74 97.4148V94.2512C128.132 84.7843 141.622 84.7866 142.013 94.2512V97.4148C142.013 98.8771 143.199 100.063 144.661 100.063C146.124 100.063 147.31 98.8771 147.31 97.4148V94.2512C146.627 77.7572 123.124 77.7616 122.443 94.2512V97.4148C122.443 98.8771 123.629 100.063 125.092 100.063Z" fill="#87CEEB"/>
<path d="M169.316 189.492C167.853 189.492 166.667 190.678 166.667 192.141C166.789 195.647 171.844 195.645 171.964 192.141C171.964 190.678 170.779 189.492 169.316 189.492Z" fill="#87CEEB"/>
<path d="M177.517 199.632C175.685 196.647 171.284 199.137 172.912 202.249C176.448 208.468 178.976 215.156 180.427 222.126C180.719 223.567 182.163 224.48 183.56 224.179C184.992 223.88 185.911 222.478 185.613 221.046C184.049 213.535 181.325 206.33 177.517 199.631L177.517 199.632Z" fill="#87CEEB"/>
</svg>
