<svg width="202" height="202" viewBox="0 0 202 202" fill="none" xmlns="http://www.w3.org/2000/svg">
<path d="M66.0685 82.882C58.6056 79.2183 55.8888 76.5012 52.2252 69.0386C51.8275 68.2283 51.0033 67.7146 50.1003 67.7146C49.1972 67.7146 48.3734 68.2283 47.9753 69.0386C44.3117 76.5016 41.5946 79.2183 34.1316 82.882C32.3913 83.6876 32.3842 86.3254 34.1316 87.1315C41.5946 90.7955 44.3113 93.5122 47.9753 100.975C48.373 101.786 49.1972 102.299 50.1003 102.299C51.0033 102.299 51.8271 101.786 52.2252 100.975C55.8892 93.5122 58.606 90.7951 66.0685 87.1315C66.8789 86.7338 67.3926 85.9096 67.3926 85.0065C67.3926 84.1034 66.8789 83.28 66.0685 82.882ZM50.1003 94.9302C47.4494 90.4846 44.6226 87.6574 40.177 85.0069C44.6226 82.356 47.4498 79.5292 50.1003 75.0837C52.7511 79.5292 55.5779 82.356 60.0235 85.0069C55.5779 87.6578 52.7511 90.4846 50.1003 94.9302Z" fill="#87CEEB"/>
<path d="M176.229 110.958C170.429 110.958 165.71 115.677 165.71 121.478V158.421C165.71 164.222 170.429 168.941 176.229 168.941C182.029 168.941 186.749 164.222 186.749 158.421V121.478C186.749 115.677 182.03 110.958 176.229 110.958ZM176.229 115.693C179.419 115.693 182.015 118.288 182.015 121.478C181.697 129.152 170.761 129.15 170.444 121.478C170.444 118.288 173.039 115.693 176.229 115.693ZM176.229 164.206C173.039 164.206 170.444 161.611 170.444 158.421V130.257C173.746 132.555 178.713 132.554 182.015 130.257V158.421C182.015 161.611 179.419 164.206 176.229 164.206Z" fill="#87CEEB"/>
<path d="M176.498 136.009H175.96C174.653 136.009 173.593 137.069 173.593 138.376C173.593 139.683 174.653 140.743 175.96 140.743H176.498C179.631 140.635 179.631 136.117 176.498 136.009Z" fill="#87CEEB"/>
<path d="M176.498 144.445H175.96C174.653 144.445 173.593 145.505 173.593 146.812C173.593 148.119 174.653 149.179 175.96 149.179H176.498C179.631 149.071 179.631 144.553 176.498 144.445Z" fill="#87CEEB"/>
<path d="M176.498 152.881H175.96C174.653 152.881 173.593 153.941 173.593 155.248C173.593 156.555 174.653 157.615 175.96 157.615H176.498C179.631 157.507 179.631 152.989 176.498 152.881Z" fill="#87CEEB"/>
<path d="M182.921 65.9648C182.921 67.2719 183.981 68.332 185.288 68.332C188.422 68.2235 188.421 63.7054 185.288 63.5977C183.981 63.5977 182.921 64.6574 182.921 65.9648Z" fill="#87CEEB"/>
<path d="M195.693 103.822C193.596 100.809 192.294 97.2886 191.926 93.6593C191.735 91.6306 191.846 89.5763 191.659 87.5515C191.294 82.9982 190.398 78.8067 189.508 74.7375C189.23 73.4601 187.967 72.6505 186.691 72.9282C185.414 73.2064 184.604 74.4673 184.882 75.7448C185.587 78.9823 186.267 82.1074 186.679 85.3658H165.788C166.448 80.1844 167.867 74.7525 168.898 69.5238C170.661 61.1124 171.747 50.9142 171.894 41.752C174.737 42.3694 177.721 42.3698 180.565 41.752C180.678 47.0868 181.003 52.0579 181.551 56.8657C181.699 58.1645 182.87 59.0983 184.171 58.9496C185.469 58.8016 186.403 57.6287 186.255 56.3295C185.671 51.2041 185.351 45.8721 185.274 40.0867C197.587 34.0495 200.399 17.3044 190.675 7.62344C183.023 -0.385544 169.434 -0.386728 161.783 7.62502C152.061 17.308 154.872 34.0527 167.188 40.0882C167.163 41.9161 167.113 43.6591 167.043 45.3323C158.797 39.7852 148.571 37.1277 138.058 38.0067C117.001 27.3271 84.879 27.3271 63.8209 38.0067C55.6218 37.3013 47.1768 38.8482 39.9257 42.4037C35.6257 38.7508 32.6423 34.3218 29.2276 27.3658C28.4184 25.6243 25.7861 25.6188 24.9777 27.3658C19.2038 39.1275 14.6651 43.6666 2.9029 49.4406C2.09254 49.8387 1.57886 50.6629 1.57886 51.5655C1.57886 52.4682 2.09254 53.2924 2.9029 53.6905C10.7249 57.5305 15.3515 60.8268 19.2724 66.0618C13.1067 90.5827 16.3462 110.93 32.4075 127.993C36.3398 132.353 37.6161 141.036 38.9674 150.228C40.4469 160.291 42.1237 171.698 47.5895 181.124C54.005 192.188 64.3997 198.47 79.3678 200.329C82.543 200.723 85.6712 199.849 88.1797 197.866C90.6841 195.887 92.2559 193.05 92.6047 189.878L97.6303 144.195C97.7624 142.993 98.774 142.086 99.9832 142.086H101.896C103.105 142.086 104.117 142.993 104.249 144.195L109.274 189.877C109.623 193.05 111.195 195.887 113.7 197.866C116.205 199.854 119.374 200.724 122.511 200.329C135.786 198.681 145.522 193.495 152.036 184.561V188.585C152.036 195.111 157.346 200.421 163.872 200.421H188.586C195.112 200.421 200.422 195.111 200.422 188.585V118.905C200.422 113.486 198.786 108.27 195.693 103.821V103.822ZM169.141 20.2236C169.77 19.5616 170.66 19.4535 171.527 19.5915C172.159 19.6038 172.783 19.3454 173.233 18.9011C173.677 18.451 173.935 17.8296 173.924 17.1967C173.786 16.33 173.893 15.4371 174.556 14.8094C175.999 13.3205 178.631 14.4086 178.597 16.4838C178.497 17.181 178.502 17.9752 178.954 18.5693C179.383 19.2136 180.15 19.5994 180.92 19.5927C181.79 19.4582 182.687 19.5572 183.318 20.2252C184.807 21.6672 183.719 24.2999 181.644 24.266C180.793 24.1227 179.859 24.2328 179.228 24.8925C178.698 25.4219 178.447 26.1984 178.561 26.9393C178.691 27.7023 178.439 28.4448 177.902 28.9869C176.454 30.4743 173.836 29.3917 173.862 27.3121C173.86 27.0797 173.941 26.759 173.921 26.5053C173.91 25.588 173.306 24.7153 172.454 24.3768C171.948 24.1389 171.341 24.2072 170.814 24.2644C170.182 24.2644 169.588 24.0178 169.14 23.5708C168.223 22.6894 168.222 21.1042 169.14 20.2232L169.141 20.2236ZM170.287 31.1892C172.984 35.4253 179.414 35.5054 182.177 31.1927L185.443 34.4587C180.152 38.4655 172.307 38.4659 167.016 34.4595L170.287 31.1892ZM188.791 31.1111L185.526 27.8463C189.798 25.1193 189.796 18.6751 185.524 15.9504L188.79 12.6845C192.786 17.8576 192.786 25.9384 188.791 31.1111ZM185.442 9.33689L182.177 12.6016C179.413 8.28862 172.981 8.37384 170.288 12.6076L167.016 9.33649C172.19 5.34068 180.27 5.34187 185.442 9.33689ZM163.668 12.6845L166.934 15.9496C162.66 18.6758 162.662 25.1209 166.934 27.8463L163.668 31.1123C159.671 25.9388 159.672 17.8576 163.668 12.6849L163.668 12.6845ZM195.687 180.924H156.771V118.906C156.771 114.458 158.113 110.176 160.653 106.524C161.448 105.37 162.163 104.154 162.77 102.896H189.688C190.293 104.151 190.998 105.364 191.805 106.524C194.345 110.176 195.687 114.458 195.687 118.906V180.924ZM187.058 90.2332C187.047 92.8994 187.239 95.5814 187.943 98.162H164.516C165.225 95.5242 165.417 92.8319 165.42 90.1002H187.054C187.055 90.1448 187.057 90.1886 187.058 90.2328V90.2332ZM129.539 39.5371C125.205 40.7475 121.1 42.5868 117.393 45.0009C108.358 41.054 93.5141 41.0564 84.4861 45.0009C80.7794 42.5868 76.6739 40.7479 72.34 39.5371C89.5195 33.1251 112.36 33.1251 129.539 39.5371ZM9.09073 51.5659C17.6824 46.8351 22.3714 42.1465 27.1019 33.5548C31.7289 42.1177 36.9604 47.1417 45.113 51.5663C36.5217 56.2968 31.8327 60.9858 27.1019 69.5775C22.3714 60.9858 17.6824 56.2968 9.09073 51.5663V51.5659ZM121.927 195.632C118.108 196.187 114.322 193.207 113.98 189.361L108.954 143.678C108.558 140.072 105.523 137.353 101.896 137.353H99.9828C96.3551 137.353 93.3204 140.073 92.9239 143.678L87.8984 189.361C87.6889 191.264 86.7463 192.966 85.2436 194.153C83.7372 195.344 81.8573 195.868 79.9509 195.632C49.8778 191.898 46.5696 169.394 43.6509 149.54C42.1292 139.188 40.815 130.248 35.9224 124.823C21.9848 109.436 18.4025 94.3935 22.8729 71.7142C23.5479 72.9337 24.3031 74.3923 24.9773 75.7661C25.7881 77.5056 28.4172 77.5146 29.2272 75.7661C35.0012 64.0043 39.5399 59.4656 51.302 53.6913C52.1124 53.2932 52.6261 52.469 52.6261 51.5663C52.6261 50.6636 52.1124 49.8395 51.302 49.4414C50.6057 49.0997 49.9291 48.7577 49.2469 48.4057C47.5733 47.535 45.9202 46.6221 44.3303 45.6121C55.1834 41.0615 68.8464 41.6518 79.2423 47.3914C72.2674 50.9662 67.0699 54.7115 58.002 54.695C54.8978 54.7893 54.8433 59.3137 58.002 59.4293C76.9911 59.0747 80.9637 46.5226 100.939 46.7369C120.913 46.5222 124.89 59.0754 143.876 59.4297C146.983 59.3327 147.034 54.8113 143.876 54.695C134.809 54.7115 129.611 50.9659 122.636 47.3914C136.168 39.8373 154.992 41.3807 166.711 50.9453C165.946 60.4326 164.837 65.9786 163.31 73.0892C162.423 77.1915 161.483 81.2682 161.005 85.4376C160.739 87.6178 160.655 89.8106 160.634 92.0145C160.462 95.9602 159.485 99.432 157.468 102.739C154.06 107.486 151.982 113.019 152.036 118.907V175.155C146.553 187.253 136.972 193.764 121.927 195.633L121.927 195.632ZM195.687 188.586C195.687 192.502 192.502 195.687 188.586 195.687H163.872C159.957 195.687 156.771 192.502 156.771 188.586V185.658H195.687V188.586Z" fill="#87CEEB"/>
</svg>
